<?xml version="1.0" standalone="no"?>
<!DOCTYPE svg PUBLIC "-//W3C//DTD SVG 20010904//EN"
 "http://www.w3.org/TR/2001/REC-SVG-20010904/DTD/svg10.dtd">
<svg version="1.0" xmlns="http://www.w3.org/2000/svg"
 width="1024.000000pt" height="1024.000000pt" viewBox="0 0 1024.000000 1024.000000"
 preserveAspectRatio="xMidYMid meet">

<g transform="translate(0.000000,1024.000000) scale(0.100000,-0.100000)"
fill="#000000" stroke="none">
<path d="M5008 9389 c-15 -11 -89 -91 -165 -177 -183 -210 -224 -252 -245
-252 -10 0 -102 45 -205 100 -217 116 -311 155 -346 146 -13 -3 -36 -18 -52
-33 l-28 -28 6 -195 c4 -107 15 -280 26 -384 11 -104 18 -193 15 -197 -3 -5
-22 -9 -44 -9 -57 0 -162 -36 -205 -70 -21 -17 -51 -48 -67 -69 l-28 -39 -122
-5 c-246 -9 -507 -112 -693 -270 -346 -296 -512 -702 -555 -1357 -26 -414 -12
-1498 25 -1807 7 -57 5 -68 -30 -148 -108 -252 -144 -614 -85 -870 67 -297
257 -735 318 -735 10 0 41 -27 70 -60 29 -33 63 -62 76 -66 18 -4 26 -16 35
-58 42 -189 186 -327 388 -372 96 -21 192 -15 293 19 41 14 76 24 76 24 6 -7
5 -491 -1 -659 -6 -183 -5 -211 9 -233 9 -14 27 -27 41 -31 14 -3 25 -9 25
-11 0 -3 -16 -24 -36 -46 -90 -99 -126 -254 -77 -323 52 -72 188 -109 403
-108 137 1 165 4 245 28 50 15 112 40 138 56 41 25 59 30 116 30 50 0 78 6
111 23 72 36 83 60 88 185 4 108 5 109 32 119 16 6 35 24 44 41 18 35 82 288
92 365 6 43 15 59 66 115 58 64 115 151 143 220 l15 35 98 -6 c53 -4 206 -7
339 -7 l241 0 23 -68 c29 -88 54 -138 95 -189 27 -33 34 -50 34 -85 0 -55 36
-301 51 -345 6 -18 23 -42 38 -52 25 -18 29 -29 39 -114 16 -131 25 -152 75
-176 83 -39 280 -53 335 -23 33 17 36 17 140 -9 227 -57 459 -60 629 -8 74 23
108 58 117 123 14 89 -42 159 -180 226 -103 50 -102 49 -87 58 24 15 33 67 33
190 0 98 7 164 30 292 17 91 37 224 46 295 27 242 27 240 50 243 21 3 50 -22
93 -79 14 -17 50 -44 80 -58 48 -22 69 -26 146 -25 81 0 97 4 154 32 78 39
112 68 172 142 57 72 83 125 108 221 10 41 35 102 55 134 20 33 36 64 36 69 0
5 6 17 14 25 39 43 123 369 158 606 18 131 16 418 -6 535 -24 132 -59 260
-100 360 -67 166 -125 300 -161 372 -96 190 -255 343 -410 394 -68 23 -82 37
-105 110 -23 75 -45 121 -61 126 -8 3 -12 37 -13 103 -1 83 -5 108 -25 147
l-23 47 26 34 c51 67 69 123 69 221 0 73 -5 104 -26 158 l-26 67 40 78 c46 93
62 169 85 407 l18 178 40 39 41 39 0 103 c-1 156 -23 179 -192 198 -136 15
-139 17 -146 79 -14 113 -88 222 -188 277 -43 23 -48 29 -54 71 -29 195 -198
342 -392 342 -51 0 -54 2 -78 39 -44 71 -148 126 -256 138 -32 3 -65 11 -72
17 -11 9 -10 50 9 236 13 124 26 290 30 370 8 169 0 200 -60 220 -44 14 -55
10 -275 -119 -96 -55 -180 -101 -188 -101 -8 0 -96 84 -196 187 -100 102 -200
199 -221 215 -49 35 -116 38 -158 7z m125 -118 c18 -17 74 -72 123 -123 258
-270 278 -288 314 -288 36 0 117 41 288 147 104 64 138 75 148 48 14 -34 -60
-729 -81 -761 -41 -64 -177 -113 -420 -151 -151 -24 -500 -23 -685 0 -492 64
-676 129 -694 248 -24 165 -62 650 -52 674 3 8 15 15 26 15 12 0 122 -52 244
-115 150 -77 234 -115 256 -115 72 0 109 33 323 291 98 119 139 159 163 159 7
0 28 -13 47 -29z m-1033 -1046 c193 -102 309 -133 673 -181 343 -45 813 -19
1032 56 69 24 170 87 210 132 27 30 29 30 91 25 126 -12 222 -79 245 -172 6
-25 13 -45 14 -45 1 0 22 7 45 15 95 34 197 9 272 -66 57 -57 82 -131 76 -218
l-4 -57 56 -17 c78 -23 132 -65 164 -128 27 -56 35 -127 14 -134 -7 -2 -107
-9 -223 -15 -394 -20 -706 -65 -810 -118 -16 -8 -43 -25 -58 -38 -28 -23 -34
-24 -206 -24 l-178 0 -44 30 c-100 68 -299 103 -744 131 -229 14 -638 6 -780
-15 -124 -19 -303 -64 -415 -106 -162 -61 -251 -89 -265 -84 -20 8 -45 78 -45
127 0 118 73 226 179 264 39 13 50 21 44 33 -4 8 -9 45 -11 82 -10 175 95 312
240 313 l56 0 12 40 c7 22 24 62 38 88 57 106 206 144 322 82z m-620 -175
c-16 -12 -33 -17 -47 -13 -13 3 -23 1 -23 -6 0 -6 8 -7 17 -4 12 5 8 -5 -13
-32 -17 -22 -41 -58 -53 -80 -21 -37 -23 -34 -6 8 4 10 3 17 -5 17 -7 0 -10 7
-6 18 5 15 4 14 -9 -2 -8 -10 -12 -23 -8 -29 3 -6 1 -7 -4 -4 -6 4 -14 0 -17
-9 -4 -9 -13 -14 -22 -10 -8 3 -13 2 -10 -3 3 -4 -10 -21 -29 -36 -18 -16 -31
-33 -28 -38 3 -6 2 -7 -4 -4 -8 5 -73 -56 -77 -73 0 -3 -5 -3 -11 -2 -5 2 -7
0 -3 -4 7 -6 -52 -89 -75 -105 -11 -8 7 -51 49 -120 32 -54 34 -60 24 -105 -5
-27 -11 -63 -12 -81 l-3 -32 -47 64 c-26 35 -55 79 -65 99 -9 20 -19 36 -22
36 -10 0 -52 -102 -96 -235 -38 -116 -60 -209 -80 -342 -5 -30 -12 -43 -23
-44 -14 -1 -14 -2 1 -6 14 -4 17 -11 13 -26 -3 -12 -6 -35 -6 -52 l-1 -30 -18
25 c-11 14 -31 39 -45 55 -14 17 -29 38 -32 48 -3 9 -10 17 -15 17 -15 0 2
-26 78 -119 71 -88 173 -174 256 -216 42 -20 53 -33 78 -85 33 -70 35 -80 14
-80 -27 0 -184 78 -248 124 -35 25 -68 42 -72 38 -5 -4 -5 -2 -1 5 3 6 2 14
-4 18 -5 3 -10 -2 -10 -12 0 -11 -5 -24 -12 -31 -9 -9 -9 -12 0 -12 14 0 5
-88 -12 -109 -6 -8 -6 -12 -1 -9 6 4 9 -18 7 -60 -1 -37 -2 -96 -2 -131 0 -52
-2 -62 -15 -57 -8 3 -15 1 -15 -4 0 -6 7 -10 15 -10 12 0 14 -21 13 -120 l-1
-121 34 -25 c59 -44 154 -94 238 -124 l81 -30 2 43 c1 39 2 39 7 -13 6 -54 6
-55 -24 -66 -16 -6 -36 -22 -43 -36 l-12 -26 -38 19 c-20 10 -72 34 -114 53
-157 70 -331 204 -415 320 -21 28 -42 54 -48 58 -26 18 9 637 48 848 l12 65
37 -71 c21 -39 35 -74 31 -78 -3 -3 -1 -6 6 -6 7 0 9 -4 6 -10 -3 -5 -2 -10 3
-10 6 0 19 -14 30 -32 17 -26 18 -36 9 -48 -10 -13 -10 -13 4 -2 13 10 19 9
29 -3 7 -8 11 -15 8 -15 -2 0 17 -23 43 -52 27 -28 45 -56 42 -62 -3 -6 -3 -8
2 -4 4 4 14 3 22 -3 30 -25 9 4 -48 68 -78 88 -126 158 -179 263 -42 84 -42
84 -30 140 38 169 210 533 243 513 6 -3 7 -2 4 4 -8 12 40 79 54 75 5 -1 8 1
7 6 -5 15 41 64 53 56 8 -5 9 -3 4 6 -4 7 -2 16 6 21 9 5 17 3 22 -9 5 -12 6
-10 3 7 -6 31 32 66 149 140 107 67 224 115 358 146 125 29 128 29 97 5z
m-153 -242 c-3 -7 -5 -2 -5 12 0 14 2 19 5 13 2 -7 2 -19 0 -25z m-14 -79 c-5
-5 -7 7 -4 29 5 34 6 35 9 8 2 -16 0 -32 -5 -37z m0 -41 c-3 -13 -24 -36 -46
-53 -60 -43 -70 -44 -16 -1 26 21 49 46 52 57 7 27 15 24 10 -3z m-124 -125
c-40 -47 -42 -49 -33 -33 23 40 40 60 48 60 5 0 -1 -12 -15 -27z m-46 -68 c-3
-9 -8 -14 -10 -11 -3 3 -2 9 2 15 9 16 15 13 8 -4z m1 -362 c-6 -9 -17 -19
-25 -21 -8 -2 -5 2 5 10 18 15 19 21 2 73 -4 11 1 5 11 -13 12 -24 14 -38 7
-49z m-78 -85 c-9 -12 -16 -32 -16 -43 0 -11 -5 -27 -10 -35 -16 -24 0 51 16
78 8 12 17 22 20 22 3 0 -2 -10 -10 -22z m811 -50 c5 -7 15 -62 22 -123 50
-463 248 -679 676 -736 129 -17 357 -6 464 21 291 76 438 235 521 563 15 60
35 116 44 125 12 12 32 16 83 14 37 -1 75 -5 85 -8 18 -5 33 -42 73 -179 45
-154 97 -249 184 -336 85 -86 159 -128 280 -162 65 -18 103 -21 271 -21 180 0
203 2 295 27 55 15 133 43 173 63 41 19 80 33 87 30 18 -7 35 -70 35 -132 0
-90 -47 -184 -111 -223 l-29 -18 35 -33 c96 -93 81 -280 -27 -344 -105 -61
-388 -168 -632 -237 -515 -146 -960 -159 -1591 -48 -656 116 -1064 220 -1444
370 -121 48 -135 56 -147 86 -27 65 -9 140 47 196 44 44 45 47 24 47 -29 0
-111 93 -128 145 -35 101 -15 211 53 287 l38 43 -29 37 c-77 96 -92 205 -44
303 43 88 102 122 322 185 220 62 351 83 370 58z m-827 -78 c0 -10 5 -22 10
-25 6 -3 10 -11 10 -18 0 -20 -20 7 -30 41 -5 20 -5 30 1 27 5 -4 9 -15 9 -25z
m49 -91 c-13 -26 -16 -24 -15 10 1 22 4 27 13 19 9 -7 10 -16 2 -29z m-26 -44
c-3 -9 -8 -14 -10 -11 -3 3 -2 9 2 15 9 16 15 13 8 -4z m-23 -64 c-4 -16 -5
-33 -2 -37 4 -4 2 -4 -5 0 -7 4 -10 13 -8 21 3 8 7 22 10 30 9 28 14 15 5 -14z
m0 -128 c0 -22 -2 -25 -10 -13 -13 20 -13 40 0 40 6 0 10 -12 10 -27z m33
-218 c-3 -9 -8 -14 -10 -11 -3 3 -2 9 2 15 9 16 15 13 8 -4z m-17 -51 c-4 -9
-9 -15 -11 -12 -3 3 -3 13 1 22 4 9 9 15 11 12 3 -3 3 -13 -1 -22z m-15 -56
c-3 -21 -6 -26 -9 -15 -3 17 3 47 11 47 2 0 1 -15 -2 -32z m-8 -108 c3 -38 1
-57 -3 -45 -8 19 -14 123 -6 114 2 -2 6 -33 9 -69z m-599 -135 c11 -16 19 -32
17 -34 -1 -2 8 -9 21 -15 13 -7 22 -20 22 -29 -1 -9 2 -14 7 -11 5 3 21 -8 36
-23 16 -16 45 -41 65 -57 21 -15 35 -32 32 -37 -3 -5 1 -6 9 -3 9 3 28 -8 45
-24 17 -17 33 -28 35 -26 6 6 15 -176 10 -197 -3 -8 -24 -31 -48 -50 -24 -19
-48 -43 -53 -54 -5 -11 -24 -36 -41 -55 -17 -19 -44 -52 -60 -73 -29 -38 -29
-38 -44 -16 -12 16 -13 24 -4 34 7 7 16 10 21 7 5 -3 6 0 2 7 -6 9 -12 8 -26
-4 -16 -15 -18 -15 -24 0 -3 9 -4 21 0 26 3 5 -2 9 -10 9 -14 0 -21 19 -17 43
1 5 -3 6 -9 2 -5 -3 -10 2 -11 12 0 11 -3 13 -6 5 -9 -23 135 -253 182 -291
l23 -17 -38 -44 c-21 -25 -40 -43 -43 -40 -2 3 -29 37 -61 75 -31 39 -62 77
-69 85 -9 11 -13 122 -14 424 -1 225 0 413 3 418 6 10 22 -6 48 -47z m630 -15
c5 -17 4 -20 -2 -10 -5 8 -13 26 -16 40 -5 17 -4 20 2 10 5 -8 13 -26 16 -40z
m45 -65 c20 -29 22 -38 11 -48 -10 -9 -11 -9 -8 3 3 8 -5 30 -19 48 -13 17
-20 32 -16 32 4 0 19 -16 32 -35z m-8 -96 c-5 -13 -10 -19 -10 -12 -1 15 10
45 15 40 3 -2 0 -15 -5 -28z m-102 -273 c-9 -8 -10 -7 -5 7 3 10 7 26 7 35 1
9 4 6 6 -7 3 -13 -1 -28 -8 -35z m-2 -53 c-3 -10 -5 -4 -5 12 0 17 2 24 5 18
2 -7 2 -21 0 -30z m-7 -66 c0 -41 -1 -42 -47 -59 -39 -14 -44 -14 -28 -2 11 8
30 17 43 21 18 4 22 12 22 44 0 21 2 39 5 39 3 0 5 -19 5 -43z m-115 -89 c-11
-6 -46 -29 -79 -50 -32 -22 -55 -35 -52 -29 9 14 128 91 141 91 5 0 1 -6 -10
-12z m1164 -72 c101 -27 513 -114 656 -139 261 -47 402 -66 576 -76 69 -5 131
-11 138 -15 8 -5 -4 -26 -37 -64 -27 -31 -93 -115 -147 -187 -53 -71 -103
-134 -111 -138 -19 -11 -91 10 -379 107 l-250 84 -175 156 c-96 86 -209 181
-250 212 -113 84 -112 83 -21 60z m2741 0 c0 -2 -20 -40 -44 -84 -25 -44 -68
-127 -95 -185 -37 -78 -61 -114 -94 -143 -65 -57 -310 -187 -355 -188 -33 -1
-39 4 -80 64 -25 36 -85 121 -134 189 -48 69 -85 128 -81 132 5 3 53 14 108
24 170 29 395 82 571 135 93 28 170 53 173 56 5 5 31 6 31 0z m-4050 -19 c0
-2 -15 -16 -32 -33 l-33 -29 29 33 c28 30 36 37 36 29z m-319 -107 c6 0 5 -9
-2 -21 -6 -12 -9 -34 -7 -50 3 -15 1 -26 -4 -23 -4 3 -7 38 -7 77 1 40 4 60 6
45 2 -16 9 -28 14 -28z m234 20 c-21 -23 -32 -25 -32 -6 0 8 6 12 14 9 7 -3
16 2 19 11 4 9 9 14 12 11 3 -2 -3 -14 -13 -25z m-139 -158 c-17 -16 -18 -16
-5 5 7 12 15 20 18 17 3 -2 -3 -12 -13 -22z m-16 -26 c0 -2 -8 -10 -17 -17
-16 -13 -17 -12 -4 4 13 16 21 21 21 13z m-83 -38 c-3 -7 -5 -2 -5 12 0 14 2
19 5 13 2 -7 2 -19 0 -25z m26 -39 c-15 -23 -29 -37 -30 -32 -3 9 45 73 54 73
2 0 -9 -19 -24 -41z m3000 -215 l77 -81 -14 -49 c-41 -149 -87 -322 -109 -416
-29 -117 -51 -178 -65 -178 -6 0 -104 102 -218 228 -115 125 -269 289 -343
364 -74 76 -132 141 -128 144 3 4 84 -23 179 -59 316 -119 336 -119 425 0 68
90 105 134 112 131 4 -2 41 -39 84 -84z m607 -23 c42 -62 63 -84 93 -96 50
-20 70 -14 204 56 62 33 115 59 118 59 7 0 -21 -55 -61 -115 -17 -27 -76 -122
-130 -210 -100 -164 -204 -325 -210 -325 -3 0 -20 54 -112 365 -80 269 -79
249 -25 312 32 37 49 50 57 44 7 -6 36 -46 66 -90z m-2616 -1439 c12 -42 15
-40 -132 -86 -65 -21 -218 -71 -342 -112 -291 -97 -265 -93 -289 -53 -12 19
-21 37 -21 40 0 3 15 11 33 16 17 6 120 41 227 78 294 100 473 155 495 152 12
-1 23 -14 29 -35z m4014 -12 c87 -11 220 -47 312 -83 51 -21 55 -25 52 -52 -2
-17 -7 -34 -12 -39 -4 -4 -85 10 -182 33 -95 22 -225 49 -288 58 l-115 18 -3
38 -3 37 78 0 c43 0 115 -5 161 -10z m-3934 -145 c69 -64 100 -208 59 -277
-25 -43 -40 -45 -60 -8 -45 81 -85 108 -113 75 -18 -22 -3 -69 47 -143 53 -76
52 -96 -7 -143 -102 -83 -317 -101 -440 -39 -47 24 -117 94 -141 142 -19 37
-49 146 -49 180 0 11 18 25 48 38 70 31 580 197 613 199 9 1 28 -10 43 -24z
m4001 -56 c83 -17 165 -37 184 -45 l34 -14 -6 -57 c-12 -111 -118 -278 -207
-323 -20 -10 -66 -24 -101 -31 -77 -14 -133 -2 -169 36 l-24 25 42 36 c60 51
93 112 99 184 6 61 -5 90 -33 90 -19 0 -44 -29 -44 -50 0 -45 -42 -132 -73
-150 -30 -19 -53 -18 -41 1 8 13 34 222 34 275 0 22 6 46 13 53 16 17 102 8
292 -30z"/>
<path d="M3370 7985 c-18 -34 -7 -42 14 -11 8 14 12 27 7 30 -4 3 -14 -6 -21
-19z"/>
<path d="M3186 7933 c-6 -14 -5 -15 5 -6 7 7 10 15 7 18 -3 3 -9 -2 -12 -12z"/>
<path d="M3094 7919 c-10 -12 -18 -23 -16 -25 7 -12 0 -14 -16 -5 -14 8 -19 6
-19 -5 0 -7 2 -12 5 -9 3 2 13 0 23 -6 15 -7 19 -7 17 3 -2 9 9 13 34 13 20 0
40 4 45 9 4 5 3 6 -3 3 -7 -4 -26 -4 -43 -1 l-31 7 21 18 c12 11 18 19 12 19
-5 0 -18 -9 -29 -21z"/>
<path d="M3260 7930 c-9 -6 -10 -10 -3 -10 6 0 15 5 18 10 8 12 4 12 -15 0z"/>
<path d="M3181 7894 c0 -11 3 -14 6 -6 3 7 2 16 -1 19 -3 4 -6 -2 -5 -13z"/>
<path d="M3210 7870 c-8 -5 -12 -12 -9 -15 4 -3 12 1 19 10 14 17 11 19 -10 5z"/>
<path d="M2983 7847 c3 -7 10 -39 17 -72 16 -77 26 -96 32 -62 3 15 1 24 -3
21 -15 -9 -10 20 7 46 l16 25 -20 -22 -20 -22 -5 37 c-4 21 -2 39 4 43 6 3 1
9 -11 12 -14 4 -20 2 -17 -6z"/>
<path d="M3045 7850 c-3 -6 1 -7 9 -4 18 7 21 14 7 14 -6 0 -13 -4 -16 -10z"/>
<path d="M3110 7850 c-13 -9 -13 -10 0 -10 13 0 13 -1 0 -10 -8 -5 -12 -11
-10 -14 3 -2 14 2 24 10 11 8 14 14 7 14 -7 0 -9 5 -6 10 8 12 4 12 -15 0z"/>
<path d="M3165 7829 c-4 -6 -5 -12 -2 -15 2 -3 7 2 10 11 7 17 1 20 -8 4z"/>
<path d="M3125 7811 c-3 -5 -2 -12 3 -15 5 -3 9 1 9 9 0 17 -3 19 -12 6z"/>
<path d="M2881 7722 c-1 -7 -6 -10 -11 -7 -6 3 -1 -10 11 -29 11 -19 18 -40
14 -46 -3 -5 -1 -10 5 -10 8 0 9 11 4 33 -9 41 -23 76 -23 59z"/>
<path d="M3050 7720 c0 -5 5 -10 10 -10 6 0 10 5 10 10 0 6 -4 10 -10 10 -5 0
-10 -4 -10 -10z"/>
<path d="M2813 7700 c-10 -15 -9 -18 4 -16 19 3 29 21 16 29 -5 3 -14 -3 -20
-13z"/>
<path d="M2856 7682 c-3 -6 -1 -14 5 -17 15 -10 25 3 12 16 -7 7 -13 7 -17 1z"/>
<path d="M2816 7657 c3 -10 9 -15 12 -12 3 3 0 11 -7 18 -10 9 -11 8 -5 -6z"/>
<path d="M3030 7660 c0 -5 5 -10 10 -10 6 0 10 5 10 10 0 6 -4 10 -10 10 -5 0
-10 -4 -10 -10z"/>
<path d="M2780 7639 c0 -5 5 -7 10 -4 6 3 10 8 10 11 0 2 -4 4 -10 4 -5 0 -10
-5 -10 -11z"/>
<path d="M2803 7615 c0 -8 4 -15 9 -15 4 0 8 4 8 9 0 6 -4 12 -8 15 -5 3 -9
-1 -9 -9z"/>
<path d="M2852 7609 c-19 -7 -23 -29 -6 -29 3 0 2 5 -2 12 -5 7 -2 9 8 6 8 -4
21 -3 27 2 20 12 -1 19 -27 9z"/>
<path d="M2910 7615 c0 -5 5 -17 10 -25 5 -8 10 -10 10 -5 0 6 -5 17 -10 25
-5 8 -10 11 -10 5z"/>
<path d="M2770 7559 c-12 -8 -10 -9 7 -4 19 5 22 3 17 -12 -5 -14 -4 -15 4 -3
19 25 0 38 -28 19z"/>
<path d="M2735 7549 c-4 -6 -5 -12 -2 -15 2 -3 7 2 10 11 7 17 1 20 -8 4z"/>
<path d="M2939 7531 c6 -10 7 -22 3 -27 -4 -5 -1 -4 6 2 13 11 6 44 -9 44 -6
0 -6 -8 0 -19z"/>
<path d="M2757 7529 c7 -7 15 -10 18 -7 3 3 -2 9 -12 12 -14 6 -15 5 -6 -5z"/>
<path d="M2690 7521 c0 -7 -5 -9 -12 -5 -6 4 -8 3 -4 -4 3 -6 2 -13 -4 -17 -5
-3 -15 -16 -20 -28 -10 -20 -10 -20 3 -4 8 9 19 17 24 17 11 0 26 41 18 49 -3
2 -5 -1 -5 -8z"/>
<path d="M2706 7504 c-3 -7 2 -18 10 -24 9 -8 14 -9 14 -2 0 6 -6 13 -12 15
-7 3 -3 6 10 6 27 1 30 17 2 17 -11 0 -22 -6 -24 -12z"/>
<path d="M2920 7511 c0 -8 -7 -11 -17 -6 -15 5 -16 4 -5 -6 9 -10 15 -10 24
-1 6 6 9 15 5 19 -4 3 -7 1 -7 -6z"/>
<path d="M2801 7495 c1 -19 18 -51 18 -35 0 8 -4 22 -9 30 -5 8 -9 11 -9 5z"/>
<path d="M2768 7483 c7 -3 16 -2 19 1 4 3 -2 6 -13 5 -11 0 -14 -3 -6 -6z"/>
<path d="M2678 7463 c6 -2 18 -2 25 0 6 3 1 5 -13 5 -14 0 -19 -2 -12 -5z"/>
<path d="M2744 7455 c-4 -8 -10 -12 -15 -9 -5 3 -9 -5 -9 -18 0 -18 -2 -20
-10 -8 -5 8 -10 10 -10 4 0 -6 7 -17 16 -24 8 -8 14 -9 13 -4 -4 21 2 35 11
29 6 -4 10 -3 9 2 -4 22 2 32 16 27 8 -4 15 -4 15 -1 0 13 -31 15 -36 2z"/>
<path d="M2885 7439 c-4 -6 -5 -12 -2 -15 2 -3 7 2 10 11 7 17 1 20 -8 4z"/>
<path d="M2670 7401 c0 -6 -3 -11 -7 -10 -13 2 -53 -13 -53 -20 0 -3 11 -6 24
-6 16 0 22 4 18 14 -3 8 -1 12 4 8 6 -3 16 -2 23 2 9 6 10 11 2 15 -6 4 -11 2
-11 -3z"/>
<path d="M2790 7401 c0 -6 4 -13 10 -16 6 -3 7 1 4 9 -7 18 -14 21 -14 7z"/>
<path d="M2703 7365 c0 -8 4 -12 9 -9 5 3 6 10 3 15 -9 13 -12 11 -12 -6z"/>
<path d="M2871 7354 c0 -11 3 -14 6 -6 3 7 2 16 -1 19 -3 4 -6 -2 -5 -13z"/>
<path d="M2586 7343 c-4 -9 -4 -18 -1 -21 3 -3 5 1 5 9 0 12 2 12 9 0 5 -7 11
-9 14 -5 3 5 -1 14 -8 21 -10 10 -15 9 -19 -4z"/>
<path d="M2635 7320 c1 -11 4 -22 8 -25 4 -3 5 -2 2 1 -2 4 0 15 6 25 7 14 6
19 -4 19 -8 0 -13 -9 -12 -20z"/>
<path d="M2840 7330 c8 -5 20 -10 25 -10 6 0 3 5 -5 10 -8 5 -19 10 -25 10 -5
0 -3 -5 5 -10z"/>
<path d="M2735 7320 c-3 -5 -1 -10 4 -10 6 0 11 5 11 10 0 6 -2 10 -4 10 -3 0
-8 -4 -11 -10z"/>
<path d="M2571 7258 c5 -10 17 -17 27 -17 15 1 15 2 -1 6 -10 3 -16 10 -14 17
3 7 -1 13 -8 13 -10 0 -11 -5 -4 -19z"/>
<path d="M2686 7256 c7 -19 -17 -21 -35 -3 -10 10 -11 9 -6 -5 9 -22 55 -24
55 -4 0 8 -4 18 -10 21 -6 3 -7 -1 -4 -9z"/>
<path d="M2540 7208 c0 -24 5 -50 11 -58 8 -11 9 -6 7 22 -3 23 0 34 7 30 5
-3 4 1 -2 10 -7 8 -10 17 -7 20 3 3 1 9 -5 13 -7 4 -11 -9 -11 -37z"/>
<path d="M2700 7205 c0 -8 4 -15 10 -15 5 0 7 7 4 15 -4 8 -8 15 -10 15 -2 0
-4 -7 -4 -15z"/>
<path d="M2625 7200 c3 -5 8 -10 11 -10 2 0 4 5 4 10 0 6 -5 10 -11 10 -5 0
-7 -4 -4 -10z"/>
<path d="M2745 7191 c-3 -5 -2 -12 3 -15 5 -3 9 1 9 9 0 17 -3 19 -12 6z"/>
<path d="M2675 7150 c-3 -6 1 -7 9 -4 18 7 21 14 7 14 -6 0 -13 -4 -16 -10z"/>
<path d="M2759 7145 c0 0 -2 -13 -4 -30 -2 -16 -1 -21 2 -11 4 15 7 16 15 5 8
-11 9 -10 4 3 -3 11 2 21 12 27 15 9 14 10 -5 8 -13 -1 -23 -1 -24 -2z"/>
<path d="M2562 7120 c-2 -26 85 -207 94 -197 3 2 -5 21 -16 40 -12 20 -18 42
-14 48 4 7 3 9 -3 6 -11 -7 -36 43 -36 69 0 8 -4 14 -8 14 -4 0 -10 8 -12 18
-3 12 -5 12 -5 2z"/>
<path d="M2717 7116 c-3 -8 0 -16 6 -19 7 -3 13 3 13 14 0 22 -12 25 -19 5z"/>
<path d="M2650 7086 c0 -2 7 -7 16 -10 8 -3 12 -2 9 4 -6 10 -25 14 -25 6z"/>
<path d="M2780 7079 c0 -5 5 -7 10 -4 6 3 10 8 10 11 0 2 -4 4 -10 4 -5 0 -10
-5 -10 -11z"/>
<path d="M2745 7060 c-3 -6 1 -7 9 -4 18 7 21 14 7 14 -6 0 -13 -4 -16 -10z"/>
<path d="M2789 7053 c-13 -16 -12 -17 4 -4 16 13 21 21 13 21 -2 0 -10 -8 -17
-17z"/>
<path d="M2646 7023 c-6 -14 -5 -15 5 -6 7 7 10 15 7 18 -3 3 -9 -2 -12 -12z"/>
<path d="M2660 7005 c-7 -9 -8 -15 -2 -15 5 0 12 7 16 15 3 8 4 15 2 15 -2 0
-9 -7 -16 -15z"/>
<path d="M2736 7004 c-8 -20 -4 -25 11 -16 7 4 9 13 4 21 -6 10 -10 9 -15 -5z"/>
<path d="M2776 7003 c-6 -14 -5 -15 5 -6 7 7 10 15 7 18 -3 3 -9 -2 -12 -12z"/>
<path d="M2735 6960 c3 -5 8 -10 11 -10 2 0 4 5 4 10 0 6 -5 10 -11 10 -5 0
-7 -4 -4 -10z"/>
<path d="M2740 6930 c0 -5 5 -10 11 -10 5 0 7 5 4 10 -3 6 -8 10 -11 10 -2 0
-4 -4 -4 -10z"/>
<path d="M2700 6900 c0 -5 5 -10 10 -10 6 0 10 5 10 10 0 6 -4 10 -10 10 -5 0
-10 -4 -10 -10z"/>
<path d="M2735 6881 c-3 -5 -2 -12 3 -15 5 -3 9 1 9 9 0 17 -3 19 -12 6z"/>
<path d="M2750 6840 c0 -5 5 -10 11 -10 5 0 7 5 4 10 -3 6 -8 10 -11 10 -2 0
-4 -4 -4 -10z"/>
<path d="M2441 6773 c-1 -25 2 -31 14 -27 10 4 12 10 7 18 -5 6 -12 18 -15 26
-3 8 -6 1 -6 -17z"/>
<path d="M2500 6790 c-8 -5 -10 -10 -5 -10 6 0 17 5 25 10 8 5 11 10 5 10 -5
0 -17 -5 -25 -10z"/>
<path d="M2581 6704 c0 -11 3 -14 6 -6 3 7 2 16 -1 19 -3 4 -6 -2 -5 -13z"/>
<path d="M2538 6684 c22 -15 22 -17 7 -34 -13 -14 -14 -20 -3 -26 7 -4 10 -4
6 1 -9 9 9 35 24 35 6 0 7 -7 4 -16 -3 -8 -2 -12 3 -9 15 8 9 44 -6 38 -7 -3
-16 2 -19 11 -3 9 -13 16 -22 16 -12 0 -11 -4 6 -16z"/>
<path d="M2617 6669 c7 -7 15 -10 18 -7 3 3 -2 9 -12 12 -14 6 -15 5 -6 -5z"/>
<path d="M2650 6661 c0 -6 4 -13 10 -16 6 -3 7 1 4 9 -7 18 -14 21 -14 7z"/>
<path d="M2460 6639 c0 -6 -7 -9 -15 -5 -8 3 -15 1 -15 -4 0 -6 9 -10 20 -10
11 0 20 7 20 15 0 8 -2 15 -5 15 -3 0 -5 -5 -5 -11z"/>
<path d="M2640 6625 c7 -9 15 -13 17 -11 7 7 -7 26 -19 26 -6 0 -6 -6 2 -15z"/>
<path d="M2680 6624 c0 -8 5 -12 10 -9 6 4 8 11 5 16 -9 14 -15 11 -15 -7z"/>
<path d="M2447 6599 c7 -7 15 -10 18 -7 3 3 -2 9 -12 12 -14 6 -15 5 -6 -5z"/>
<path d="M2493 6602 c-7 -4 -9 -13 -4 -21 6 -9 10 -7 14 8 3 12 4 21 4 21 -1
0 -7 -4 -14 -8z"/>
<path d="M2516 6584 c-5 -14 -4 -15 9 -4 17 14 19 20 6 20 -5 0 -12 -7 -15
-16z"/>
<path d="M2618 6593 c-9 -2 -19 -11 -22 -19 -7 -18 2 -18 21 2 10 10 27 14 45
12 15 -3 28 -1 28 4 0 8 -42 9 -72 1z"/>
<path d="M2706 6581 c-4 -5 -2 -12 3 -15 5 -4 12 -2 15 3 4 5 2 12 -3 15 -5 4
-12 2 -15 -3z"/>
<path d="M2676 6553 c-6 -14 -5 -15 5 -6 7 7 10 15 7 18 -3 3 -9 -2 -12 -12z"/>
<path d="M2692 6537 c-8 -10 -6 -13 11 -14 12 0 16 1 9 4 -6 3 -10 9 -6 14 8
14 -2 11 -14 -4z"/>
<path d="M2512 6520 c0 -14 2 -19 5 -12 2 6 2 18 0 25 -3 6 -5 1 -5 -13z"/>
<path d="M2549 6538 c-5 -9 -5 -48 -1 -43 6 6 11 45 5 45 -2 0 -4 -1 -4 -2z"/>
<path d="M2431 6494 c0 -11 3 -14 6 -6 3 7 2 16 -1 19 -3 4 -6 -2 -5 -13z"/>
<path d="M2685 6500 c-3 -5 -1 -10 4 -10 6 0 11 5 11 10 0 6 -2 10 -4 10 -3 0
-8 -4 -11 -10z"/>
<path d="M2500 6465 c-11 -13 -11 -18 0 -28 10 -10 12 -9 7 4 -3 9 0 22 6 28
6 6 8 11 5 11 -3 0 -11 -7 -18 -15z"/>
<path d="M2670 6476 c0 -2 7 -7 16 -10 8 -3 12 -2 9 4 -6 10 -25 14 -25 6z"/>
<path d="M2645 6460 c3 -5 8 -10 11 -10 2 0 4 5 4 10 0 6 -5 10 -11 10 -5 0
-7 -4 -4 -10z"/>
<path d="M2453 6430 c-11 -16 -10 -18 2 -14 8 4 15 12 15 20 0 19 -3 18 -17
-6z"/>
<path d="M2575 6440 c3 -5 8 -10 11 -10 2 0 4 5 4 10 0 6 -5 10 -11 10 -5 0
-7 -4 -4 -10z"/>
<path d="M2667 6434 c-4 -7 0 -17 9 -25 12 -10 17 -10 27 2 7 8 8 11 3 7 -16
-12 -24 -9 -28 10 -2 11 -6 13 -11 6z"/>
<path d="M2480 6426 c0 -2 8 -10 18 -17 15 -13 16 -12 3 4 -13 16 -21 21 -21
13z"/>
<path d="M2608 6423 c6 -2 18 -2 25 0 6 3 1 5 -13 5 -14 0 -19 -2 -12 -5z"/>
<path d="M2560 6401 c0 -6 4 -13 10 -16 6 -3 7 1 4 9 -7 18 -14 21 -14 7z"/>
<path d="M2647 6404 c-3 -5 1 -15 9 -22 16 -14 18 -5 5 17 -5 7 -11 9 -14 5z"/>
<path d="M2505 6374 c36 -28 53 -35 60 -24 3 5 -1 10 -10 10 -9 0 -23 7 -31
15 -9 8 -21 15 -27 15 -7 0 -3 -8 8 -16z"/>
<path d="M2606 6373 c-6 -14 -5 -15 5 -6 7 7 10 15 7 18 -3 3 -9 -2 -12 -12z"/>
<path d="M2411 6336 c-1 -26 60 -136 114 -205 55 -71 182 -197 191 -189 3 4
-4 12 -16 18 -18 10 -19 14 -8 28 11 15 11 15 -3 5 -13 -11 -24 -5 -67 41 -38
40 -48 56 -39 65 8 8 8 11 -1 11 -7 0 -12 -5 -12 -12 0 -6 -6 -3 -14 7 -8 11
-12 24 -9 29 4 5 1 6 -4 3 -11 -7 -28 20 -24 38 2 6 -1 7 -4 3 -9 -9 -66 73
-59 84 3 4 1 8 -5 8 -5 0 -16 19 -24 43 -9 23 -16 33 -16 23z"/>
<path d="M2710 6329 c0 -11 4 -18 10 -14 5 3 7 12 3 20 -7 21 -13 19 -13 -6z"/>
<path d="M2490 6289 c0 -11 4 -18 10 -14 5 3 7 12 3 20 -7 21 -13 19 -13 -6z"/>
<path d="M2629 6297 c5 -5 17 -5 28 2 16 9 15 10 -9 9 -16 -2 -24 -6 -19 -11z"/>
<path d="M2680 6293 c0 -15 18 -35 23 -27 3 5 -1 15 -9 22 -8 7 -14 9 -14 5z"/>
<path d="M2716 6287 c3 -10 9 -15 12 -12 3 3 0 11 -7 18 -10 9 -11 8 -5 -6z"/>
<path d="M2530 6271 c0 -7 -5 -9 -12 -5 -7 5 -8 3 -3 -5 5 -9 10 -10 18 -2 6
6 8 14 4 18 -4 3 -7 1 -7 -6z"/>
<path d="M2575 6260 c-3 -5 -3 -10 2 -10 4 0 1 -4 -7 -10 -9 -6 -17 -5 -22 3
-6 9 -8 9 -8 -1 0 -7 8 -16 18 -19 9 -4 22 -13 27 -21 9 -11 11 -9 11 7 0 11
-4 17 -8 14 -5 -2 -7 7 -4 21 5 27 2 33 -9 16z"/>
<path d="M2626 6234 c18 -26 28 -27 18 -1 -3 8 -12 18 -20 21 -11 4 -11 0 2
-20z"/>
<path d="M2710 6251 c0 -6 4 -13 10 -16 6 -3 7 1 4 9 -7 18 -14 21 -14 7z"/>
<path d="M2540 6198 c0 -4 4 -8 9 -8 6 0 12 4 15 8 3 5 -1 9 -9 9 -8 0 -15 -4
-15 -9z"/>
<path d="M2670 6200 c0 -5 5 -10 11 -10 5 0 7 5 4 10 -3 6 -8 10 -11 10 -2 0
-4 -4 -4 -10z"/>
<path d="M2640 6189 c0 -5 5 -7 10 -4 6 3 10 8 10 11 0 2 -4 4 -10 4 -5 0 -10
-5 -10 -11z"/>
<path d="M2660 6170 c0 -5 5 -10 10 -10 6 0 10 5 10 10 0 6 -4 10 -10 10 -5 0
-10 -4 -10 -10z"/>
<path d="M2585 6160 c3 -5 8 -10 11 -10 2 0 4 5 4 10 0 6 -5 10 -11 10 -5 0
-7 -4 -4 -10z"/>
<path d="M2605 6140 c-3 -5 -2 -10 4 -10 5 0 13 5 16 10 3 6 2 10 -4 10 -5 0
-13 -4 -16 -10z"/>
<path d="M2655 6121 c-3 -5 -1 -12 5 -16 5 -3 10 1 10 9 0 18 -6 21 -15 7z"/>
<path d="M2649 6088 c-5 -19 -8 -50 -4 -46 7 7 15 48 9 48 -2 0 -4 -1 -5 -2z"/>
<path d="M2676 6042 c-2 -4 4 -8 14 -8 10 0 16 4 14 8 -3 4 -9 8 -14 8 -5 0
-11 -4 -14 -8z"/>
<path d="M5233 6019 c-67 -25 -42 -107 47 -152 86 -43 223 -78 335 -84 81 -4
117 -1 190 16 106 26 225 81 254 117 32 41 27 79 -13 101 -26 14 -54 3 -96
-39 -40 -40 -125 -75 -219 -91 -124 -21 -351 35 -415 102 -32 34 -53 41 -83
30z"/>
<path d="M2435 6000 c-3 -5 -1 -10 4 -10 6 0 11 5 11 10 0 6 -2 10 -4 10 -3 0
-8 -4 -11 -10z"/>
<path d="M2413 5951 c-1 -15 1 -19 4 -11 4 8 13 20 22 27 14 10 14 12 -4 10
-15 -1 -21 -8 -22 -26z"/>
<path d="M2475 5950 c-3 -6 1 -7 9 -4 18 7 21 14 7 14 -6 0 -13 -4 -16 -10z"/>
<path d="M2405 5890 c3 -5 8 -10 11 -10 2 0 4 5 4 10 0 6 -5 10 -11 10 -5 0
-7 -4 -4 -10z"/>
<path d="M2493 5881 c0 -11 5 -18 9 -15 4 3 5 11 1 19 -7 21 -12 19 -10 -4z"/>
<path d="M2446 5877 c3 -10 9 -15 12 -12 3 3 0 11 -7 18 -10 9 -11 8 -5 -6z"/>
<path d="M2420 5856 c0 -9 5 -16 10 -16 6 0 10 4 10 9 0 6 -4 13 -10 16 -5 3
-10 -1 -10 -9z"/>
<path d="M2560 5836 c0 -2 7 -6 15 -10 8 -3 15 -1 15 4 0 6 -7 10 -15 10 -8 0
-15 -2 -15 -4z"/>
<path d="M2647 5793 c-10 -9 -9 -23 1 -23 5 0 9 7 9 15 0 17 -1 18 -10 8z"/>
<path d="M2620 5761 c0 -11 4 -22 9 -25 4 -3 6 6 3 19 -5 30 -12 33 -12 6z"/>
<path d="M2564 5740 c0 -13 4 -16 10 -10 7 7 7 13 0 20 -6 6 -10 3 -10 -10z"/>
<path d="M2596 5743 c-6 -14 -5 -15 5 -6 7 7 10 15 7 18 -3 3 -9 -2 -12 -12z"/>
<path d="M2688 5733 c7 -3 16 -2 19 1 4 3 -2 6 -13 5 -11 0 -14 -3 -6 -6z"/>
<path d="M2410 5720 c0 -5 5 -10 11 -10 5 0 7 5 4 10 -3 6 -8 10 -11 10 -2 0
-4 -4 -4 -10z"/>
<path d="M2493 5715 c-7 -8 -9 -16 -4 -19 5 -3 12 1 15 10 8 22 4 25 -11 9z"/>
<path d="M2568 5703 c-23 -28 -30 -43 -19 -43 6 0 11 7 11 15 0 7 8 18 17 24
10 5 15 12 12 15 -3 4 -13 -2 -21 -11z"/>
<path d="M2448 5703 c7 -3 16 -2 19 1 4 3 -2 6 -13 5 -11 0 -14 -3 -6 -6z"/>
<path d="M2625 5700 c-3 -5 -1 -10 4 -10 6 0 11 5 11 10 0 6 -2 10 -4 10 -3 0
-8 -4 -11 -10z"/>
<path d="M2656 5695 c-9 -26 -7 -32 5 -12 6 10 9 21 6 23 -2 3 -7 -2 -11 -11z"/>
<path d="M2600 5685 c0 -8 4 -15 10 -15 5 0 7 7 4 15 -4 8 -8 15 -10 15 -2 0
-4 -7 -4 -15z"/>
<path d="M2426 5661 c-3 -4 6 -8 20 -9 13 -1 24 0 24 2 0 7 -40 14 -44 7z"/>
<path d="M2570 5649 c0 -5 5 -7 10 -4 6 3 10 8 10 11 0 2 -4 4 -10 4 -5 0 -10
-5 -10 -11z"/>
<path d="M2439 5627 c12 -15 11 -17 -5 -18 -15 0 -14 -2 5 -10 13 -5 26 -7 29
-4 3 3 -1 5 -9 5 -10 0 -11 2 -2 8 9 5 6 12 -10 21 -20 13 -21 13 -8 -2z"/>
<path d="M2620 5630 c0 -5 5 -10 11 -10 5 0 7 5 4 10 -3 6 -8 10 -11 10 -2 0
-4 -4 -4 -10z"/>
<path d="M2700 5591 c0 -11 4 -22 9 -25 4 -3 6 6 3 19 -5 30 -12 33 -12 6z"/>
<path d="M2487 5593 c-3 -5 4 -15 16 -23 21 -12 21 -12 7 6 -8 10 -15 20 -16
22 -1 2 -4 -1 -7 -5z"/>
<path d="M2535 5591 c-9 -16 9 -20 23 -5 10 12 10 14 -2 14 -8 0 -17 -4 -21
-9z"/>
<path d="M2595 5590 c-3 -5 -1 -10 4 -10 6 0 11 5 11 10 0 6 -2 10 -4 10 -3 0
-8 -4 -11 -10z"/>
<path d="M2665 5589 c-11 -16 -1 -19 13 -3 7 8 8 14 3 14 -5 0 -13 -5 -16 -11z"/>
<path d="M2406 5557 c3 -10 9 -15 12 -12 3 3 0 11 -7 18 -10 9 -11 8 -5 -6z"/>
<path d="M2497 5539 c4 -13 8 -18 11 -10 2 7 -1 18 -6 23 -8 8 -9 4 -5 -13z"/>
<path d="M2533 5545 c0 -8 4 -12 9 -9 5 3 6 10 3 15 -9 13 -12 11 -12 -6z"/>
<path d="M2445 5539 c-4 -6 -5 -12 -2 -15 2 -3 7 2 10 11 7 17 1 20 -8 4z"/>
<path d="M2656 5527 c3 -10 9 -15 12 -12 3 3 0 11 -7 18 -10 9 -11 8 -5 -6z"/>
<path d="M2591 5504 c0 -11 3 -14 6 -6 3 7 2 16 -1 19 -3 4 -6 -2 -5 -13z"/>
<path d="M2620 5510 c0 -5 5 -10 10 -10 6 0 10 5 10 10 0 6 -4 10 -10 10 -5 0
-10 -4 -10 -10z"/>
<path d="M2465 5500 c3 -5 8 -10 11 -10 2 0 4 5 4 10 0 6 -5 10 -11 10 -5 0
-7 -4 -4 -10z"/>
<path d="M2440 5479 c7 -11 14 -19 16 -16 7 7 -7 37 -17 37 -6 0 -5 -9 1 -21z"/>
<path d="M2555 5465 c11 -9 19 -21 18 -26 -2 -5 2 -9 8 -9 17 0 5 22 -22 38
-23 14 -23 14 -4 -3z"/>
<path d="M2470 5450 c-8 -5 -12 -11 -10 -14 3 -2 14 2 24 10 22 15 10 19 -14
4z"/>
<path d="M2535 5439 c-4 -6 -5 -12 -2 -15 2 -3 7 2 10 11 7 17 1 20 -8 4z"/>
<path d="M2575 5410 c3 -5 8 -10 11 -10 2 0 4 5 4 10 0 6 -5 10 -11 10 -5 0
-7 -4 -4 -10z"/>
<path d="M2520 5401 c0 -5 5 -13 10 -16 6 -3 10 -2 10 4 0 5 -4 13 -10 16 -5
3 -10 2 -10 -4z"/>
<path d="M2510 5340 c-13 -8 -12 -10 3 -10 9 0 17 5 17 10 0 12 -1 12 -20 0z"/>
</g>
</svg>
